<svg width="32" height="32" viewBox="0 0 32 32" fill="none" xmlns="http://www.w3.org/2000/svg">
<rect width="32" height="32" rx="6" fill="#F59E0B"/>
<path d="M8 12C8 9.79086 9.79086 8 12 8H20C22.2091 8 24 9.79086 24 12V20C24 22.2091 22.2091 24 20 24H12C9.79086 24 8 22.2091 8 20V12Z" fill="white"/>
<path d="M16 11C14.3431 11 13 12.3431 13 14C13 15.6569 14.3431 17 16 17C17.6569 17 19 15.6569 19 14C19 12.3431 17.6569 11 16 11Z" fill="#F59E0B"/>
<path d="M12 18.5C12 17.6716 12.6716 17 13.5 17H18.5C19.3284 17 20 17.6716 20 18.5V19.5C20 20.3284 19.3284 21 18.5 21H13.5C12.6716 21 12 20.3284 12 19.5V18.5Z" fill="#F59E0B"/>
</svg>